<svg xmlns="http://www.w3.org/2000/svg" viewBox="0 0 330.309 327.463">
  <defs>
    <style>
      .cls-1 {
        fill: #e6e6e6;
      }

      .cls-2 {
        fill: #ff6584;
      }

      .cls-3 {
        fill: #fff;
      }

      .cls-4 {
        fill: #303744;
      }
    </style>
  </defs>
  <g id="Group_6" data-name="Group 6" transform="translate(-740.826 441)">
    <circle id="Ellipse_1" data-name="Ellipse 1" class="cls-1" cx="114.479" cy="114.479" r="114.479" transform="translate(804.017 -368.257)"/>
    <path id="Path_4" data-name="Path 4" class="cls-2" d="M486.611,385.679H403.162a291.865,291.865,0,0,1,0-99.5h83.449a179.028,179.028,0,0,0,0,99.5Z" transform="translate(584.524 -597.523)"/>
    <path id="Path_5" data-name="Path 5" class="cls-3" d="M468.1,313.132h-50.78c-.876,0-1.587-1.142-1.587-2.552s.711-2.552,1.587-2.552H468.1c.876,0,1.587,1.142,1.587,2.552S468.971,313.132,468.1,313.132Z" transform="translate(584.524 -597.523)"/>
    <path id="Path_6" data-name="Path 6" class="cls-3" d="M468.1,336.809h-50.78c-.876,0-1.587-1.142-1.587-2.552s.711-2.552,1.587-2.552H468.1c.876,0,1.587,1.142,1.587,2.552S468.971,336.809,468.1,336.809Z" transform="translate(584.524 -597.523)"/>
    <path id="Path_7" data-name="Path 7" class="cls-4" d="M227.321,284.707H334.83a376.017,376.017,0,0,0,0-128.184H227.321A230.646,230.646,0,0,1,227.321,284.707Z" transform="translate(584.524 -597.523)"/>
    <path id="Path_9" data-name="Path 9" class="cls-3" d="M317.867,224.374H252.446c-1.129,0-2.044-1.471-2.044-3.288s.915-3.288,2.044-3.288h65.421c1.129,0,2.044,1.471,2.044,3.288S319,224.374,317.867,224.374Z" transform="translate(584.524 -597.523)"/>
    <path id="Path_10" data-name="Path 10" class="cls-3" d="M317.867,254.878H252.446c-1.129,0-2.044-1.471-2.044-3.288s.915-3.288,2.044-3.288h65.421c1.129,0,2.044,1.471,2.044,3.288S319,254.878,317.867,254.878Z" transform="translate(584.524 -597.523)"/>
    <path id="Path_11" data-name="Path 11" class="cls-4" d="M156.3,483.986H263.81a376.019,376.019,0,0,0,0-128.184H156.3a230.647,230.647,0,0,1,0,128.184Z" transform="translate(584.524 -597.523)"/>
    <path id="Path_12" data-name="Path 12" class="cls-3" d="M246.848,393.148H181.427c-1.129,0-2.044-1.471-2.044-3.288s.915-3.288,2.044-3.288h65.421c1.129,0,2.044,1.471,2.044,3.288S247.977,393.148,246.848,393.148Z" transform="translate(584.524 -597.523)"/>
    <path id="Path_13" data-name="Path 13" class="cls-3" d="M246.848,423.652H181.427c-1.129,0-2.044-1.471-2.044-3.288s.915-3.288,2.044-3.288h65.421c1.129,0,2.044,1.471,2.044,3.288S247.977,423.652,246.848,423.652Z" transform="translate(584.524 -597.523)"/>
  </g>
</svg>
